<svg id="Layer_1" data-name="Layer 1" xmlns="http://www.w3.org/2000/svg" viewBox="0 0 32 32"><defs><style>.cls-1{fill:#c2f9db;}.cls-2{fill:#009444;}</style></defs><circle class="cls-1" cx="16" cy="16" r="16"/><path class="cls-2" d="M11.19,19.3l-.73.16a14.45,14.45,0,0,1-2.71.14c-.06,0-.14,0-.13.11a4,4,0,0,0,.15,1.14.49.49,0,0,0,.4.42,2.67,2.67,0,0,0,.64.08c.12,0,.34-.06.34.13s-.23.13-.36.13h-4c-.09,0-.21,0-.22-.11s.13-.12.21-.15h0c.75-.05.88-.18.93-1,.07-.12,0-.26,0-.39a.8.8,0,0,0,0-.55c0-.14-.07-.18-.19-.21a12.8,12.8,0,0,1-3.13-1.36c-.06,0-.11-.08-.16-.11s0-.13.06-.07a.44.44,0,0,0,.25.06,16.72,16.72,0,0,0,2.61.79,12.53,12.53,0,0,0,2.93.25,15.76,15.76,0,0,0,5.39-1.42l.41-.17a1.47,1.47,0,0,0,.75-.34,29.49,29.49,0,0,1,5.72-2.23,13,13,0,0,1,3.89-.29c.48,0,.48,0,.48-.47,0-.75,0-1.5,0-2.25s-.28-1-1-1c-.15,0-.42.12-.42-.13s.27-.11.41-.1c1.28,0,2.56,0,3.84,0,.1,0,.27-.06.27.12s-.17.11-.28.12a1,1,0,0,0-.61.14c-.36.13-.33.47-.34.74,0,.94,0,1.89,0,2.83,0,.58.06.64.67.7a11.69,11.69,0,0,1,1.8.82c0,.12.15.11.2.22L29.15,16a7,7,0,0,0-1.73-.49,13.1,13.1,0,0,0-8.2.56c-1.71.67-3.35,1.49-5,2.2a25.43,25.43,0,0,1-2.58.91Zm1.15-5.1a1.08,1.08,0,0,0,.15-.49,3.65,3.65,0,0,0-.2-1.67,9.5,9.5,0,0,0-.54-.81,6.11,6.11,0,0,0-.75-.5,4.11,4.11,0,0,0-1.29-.3c-1.26-.09-2.53,0-3.79,0-.45,0-.89,0-1.34,0-.08,0-.18,0-.18.12s.08.13.17.14H5a.71.71,0,0,1,.79.7c0,.3.06.61.06.91,0,1.85,0,3.69,0,5.53,0,.18,0,.25.24.27.45.05.89.08,1.33.11.15,0,.18,0,.18-.16,0-.27,0-.54,0-.82s.07-.26.26-.25a6.32,6.32,0,0,0,.87,0,.83.83,0,0,1,.83.45,4.15,4.15,0,0,0,.24.34c.27.22.53,0,.79,0a2.14,2.14,0,0,1,.56-.11h0c0-.13.24-.06.25-.21-.2-.25-.39-.51-.6-.75s-.18-.32,0-.5a4.87,4.87,0,0,0,1.3-1.52A1.51,1.51,0,0,1,12.34,14.2ZM7.6,11.38c0-.21.09-.29.29-.29a3.72,3.72,0,0,1,1.59.18,2.36,2.36,0,0,1,.8.68,3.36,3.36,0,0,1,.5,2.52,2.45,2.45,0,0,1-.95,1.66.8.8,0,0,1-.48.14,8.73,8.73,0,0,1-1.53-.09c-.18,0-.22-.13-.22-.29V13.64C7.6,12.88,7.61,12.13,7.6,11.38Zm14.32,5.45a2.64,2.64,0,0,0-.84,0c-.49.06-1,.11-1.48.19s-.71.16-1.06.24-.52.17-.77.27a36.64,36.64,0,0,0-3.38,1.68A12.34,12.34,0,0,1,11,20.4a4.54,4.54,0,0,1-1.26.2l-.48,0a5.49,5.49,0,0,0,2,.08,4.41,4.41,0,0,1,.73-.08c.1,0,.2,0,.21.16a.35.35,0,0,0,0,.08,3,3,0,0,0,2.38.73l4.26,0h1.59c.07,0,.18,0,.17-.13s-.11-.08-.18-.08l-.59-.05c-.57,0-.7-.18-.77-.76-.12-.92-.06-1.85-.09-2.77,0-.14.07-.19.2-.24a12.57,12.57,0,0,1,2.41-.63A.62.62,0,0,1,21.92,16.83Zm-5,4.16a.48.48,0,0,1-.35.34,3.7,3.7,0,0,1-.94,0,2.85,2.85,0,0,1-1.7-1c-.05-.05-.15-.09-.11-.17a.3.3,0,0,1,.21-.15,10.36,10.36,0,0,0,1.84-.88l1.08-.56c.14-.07.15,0,.15.14,0,.26,0,.53,0,.9A3.27,3.27,0,0,1,16.91,21Zm8.18-5.14c-.15,0-.21,0-.2.19,0,1.36,0,2.73,0,4.09a1.41,1.41,0,0,1-.16.82.44.44,0,0,1-.47.39,1.93,1.93,0,0,0-.34,0c-.12,0-.32-.05-.32.13s.2.11.32.14H24c1.28-.05,2.57,0,3.86,0,.16,0,.46.1.46-.11s-.29-.11-.46-.12c-.69-.06-1-.08-1-1-.1-1.28-.06-2.57-.07-3.86,0-.56,0-.57-.59-.6A4.92,4.92,0,0,1,25.09,15.85ZM17.92,10.4H15.84c-.09,0-.2,0-.21.12s.11.12.2.13h.34c.64,0,.91.28.91.91,0,1.1,0,2.2,0,3.3,0,.21.06.23.24.16.47-.19.95-.37,1.43-.54a.24.24,0,0,0,.2-.28c0-.87,0-1.75,0-2.63,0-.7.23-.91.93-.93.11,0,.28,0,.27-.13s-.16-.13-.28-.13Zm4.79,5.44c.09.08.2,0,.31,0a6.08,6.08,0,0,1,1.65-.08s0,0,.07.08l.06.06a2,2,0,0,1,0,.24q0,1,0,2.07a13.72,13.72,0,0,1-.15,2.64l0,.06a1.41,1.41,0,0,0,.16-.82c.05-1.36,0-2.73,0-4.09,0-.21.05-.21.2-.19a4.92,4.92,0,0,0,1,.08A10.16,10.16,0,0,0,22.71,15.84Zm4.4-.9c-.29,0-.4-.18-.39-.5,0-.93,0-1.85,0-2.78a1.19,1.19,0,0,1,.29-.88c-.36.13-.33.47-.34.74,0,.94,0,1.89,0,2.83,0,.58.06.64.67.7C27.28,15,27.19,15,27.11,14.94ZM7.69,19.87c0-.17,0-.22.19-.22.4,0,.8,0,1.19,0a5.43,5.43,0,0,0,1.39-.2,14.45,14.45,0,0,1-2.71.14c-.06,0-.14,0-.13.11a4,4,0,0,0,.15,1.14C7.75,20.52,7.73,20.19,7.69,19.87Zm4.11-8.65h-.05a9.5,9.5,0,0,1,.54.81,3.65,3.65,0,0,1,.2,1.67A2.51,2.51,0,0,0,11.8,11.22Zm17.61,5c.08,0,.16.12.25,0a2.48,2.48,0,0,0-.54-.32c0,.12.15.11.2.22L29.15,16a7,7,0,0,0-1.73-.49ZM9.17,20.74a8.79,8.79,0,0,0,2.51,0c.15,0,.32-.09.46.06,0-.14-.11-.17-.21-.16a4.41,4.41,0,0,0-.73.08,5.49,5.49,0,0,1-2-.08C9.11,20.63,9.14,20.69,9.17,20.74Zm11.44-4a7.3,7.3,0,0,0-2.07.45c.35-.08.7-.18,1.06-.24s1-.13,1.48-.19ZM9.7,20.6A4.54,4.54,0,0,0,11,20.4a14,14,0,0,1-1.82.16c-.08,0-.24-.06-.23.08s.15.12.26.1-.06-.11.05-.09Zm12.81-4.76.16.09H24.8l-.06-.06H23c-.11,0-.22,0-.31,0Zm-.59,1v.05h.29l.15-.09a6,6,0,0,0-1.75,0l.47,0A2.64,2.64,0,0,1,21.92,16.83ZM10.06,17.94a6.22,6.22,0,0,0,1.1-.31,2.14,2.14,0,0,0-.56.11c-.26.05-.52.25-.79,0A.19.19,0,0,0,10.06,17.94ZM11,10.73a6.11,6.11,0,0,1,.75.5h.05A1.49,1.49,0,0,0,11,10.73Zm3,6.49a1.47,1.47,0,0,0,.75-.34A2.67,2.67,0,0,0,14,17.22Zm-11.75.36c-.07,0-.14,0-.2,0l.3.16c0-.06,0-.13.06-.07a.44.44,0,0,0,.25.06ZM29.9,16.44l.38.19c-.05-.18-.1-.27-.23-.29C30.15,16.59,29.93,16.36,29.9,16.44Zm-.34-.15.2.05.15-.06c-.09,0-.15-.12-.25-.09s-.17,0-.25,0Zm-5.32,5.05a.44.44,0,0,0,.47-.39l0-.06A.7.7,0,0,1,24.24,21.34ZM5.83,19.7a1.83,1.83,0,0,0,0,.7c.07-.12,0-.26,0-.39Zm6.51-5.5a1.51,1.51,0,0,0-.2.45A.53.53,0,0,0,12.34,14.2ZM2,17.46c-.09-.05-.17-.13-.31,0l.25.14C1.93,17.5,2,17.47,2,17.46Zm27.73-1.08.14.06c0-.08.25.15.15-.1l-.14-.06-.15.06ZM5.85,19.46c0,.07-.11.15,0,.24l0,.31A.8.8,0,0,0,5.85,19.46ZM2.07,17.62c.06-.07.13,0,.2,0L2,17.46c-.07,0-.1,0-.06.11Zm20.28-1.73a.45.45,0,0,0,.32,0l-.16-.09C22.45,15.83,22.39,15.82,22.35,15.89Zm.2.91-.19,0-.15.09A.36.36,0,0,0,22.55,16.8Zm-11.15.62c0,.15-.21.08-.25.21C11.24,17.56,11.49,17.69,11.4,17.42Zm.2,1.79-.41.09C11.34,19.32,11.49,19.34,11.6,19.21Zm10-2.28.35-.05v-.05A.62.62,0,0,0,21.57,16.93ZM28.8,15.5a.18.18,0,0,0,.05.07s0,0,0,0,0,0,0-.09Zm.76.79.2.09v0Zm-4.89-.49a6.08,6.08,0,0,0-1.65.08h1.72S24.69,15.8,24.67,15.8Z"/></svg>